<svg width="1920" height="40" xmlns="http://www.w3.org/2000/svg">

    <g>
        <title>Layer 1</title>
        <path id="svg_1" d="m1827.156,15.021l-0.027,-0.027l6.656,0l-0.026,0.027l-6.603,0zm-2.191,9.015l11.004,0l-5.508,-5.478l3.298,-3.537l86.241,0l0,24.054l-1919.999,0l0,-24.062l271.883,0l7.653,-8.083l12.921,0l15.968,17.106l0.023,-0.023l0.018,0.023l9.171,-9.015l145.603,0l3.298,3.537l-5.508,5.478l11.004,0l-5.496,-5.478l3.305,-3.537l81.713,0l4.694,-4.443l9.246,-9.22l6.166,5.708l31.247,-0.011l5.009,0l12.659,12.928l33.631,0l7.239,-7.026l74.261,0.038l5.771,5.559l8.649,-8.624l2.891,3.065l165.161,-0.038l12.761,-12.891l24.051,23.97l0.007,-0.012l0.012,0.012l9.052,-9.023l3.842,0l2.099,2.093l-3.335,3.313l6.656,0l-3.321,-3.313l2.062,-2.051l77.933,-0.032l0,-0.01l14.03,0.004l7.97,-0.004l0,0.006l153.933,0.036l2.061,2.051l-3.32,3.313l6.657,0l-3.337,-3.313l2.1,-2.093l3.842,0l9.053,9.023l0.011,-0.012l0.007,0.012l24.051,-23.97l12.761,12.891l89.161,0.038l2.891,-3.065l8.649,8.624l5.77,-5.497l249.262,-0.038l7.238,6.964l33.632,0l12.658,-12.991l36.257,0.011l6.165,-5.645l9.247,9.22l4.694,4.443l81.713,0l3.305,3.537l-5.496,5.478zm-1483.341,-5.179l-1.735,0l0,5.179l1.735,0l0,-5.179zm2.624,0l-1.73,0l0,5.179l1.73,0l0,-5.179zm12.122,0l-1.73,0l0,5.179l1.73,0l0,-5.179zm20.798,0l-5.195,0l0,5.179l5.195,0l0,-5.179zm207.507,-6.509l-1.734,0l0,1.725l1.734,0l0,-1.725zm6.641,0l-1.734,0l0,5.178l1.734,0l0,-5.178zm13.435,0l-1.734,0l0,1.725l1.734,0l0,-1.725zm0,3.454l-1.734,0l0,1.724l1.734,0l0,-1.724zm1089.232,-3.454l-1.734,0l0,1.725l1.734,0l0,-1.725zm0,3.454l-1.734,0l0,1.724l1.734,0l0,-1.724zm13.435,-3.454l-1.735,0l0,5.178l1.735,0l0,-5.178zm6.641,0l-1.735,0l0,1.725l1.735,0l0,-1.725zm-1250.845,2.646l6.657,0l-0.027,0.027l-6.603,0l-0.027,-0.027zm291.008,-9.018l-4.093,3.954l-4.104,-3.954l8.197,0zm621.753,0l-4.104,3.954l-4.093,-3.954l8.197,0z" fill="rgb(0, 0, 0)" fill-rule="evenodd"/>
    </g>
</svg>