<svg width="1920" height="37" xmlns="http://www.w3.org/2000/svg">

 <g>
  <title>Layer 1</title>
  <path id="svg_1" d="m1920,13.018l0,23.993l-1919.999,0l0,-23.966l158.5,-0.029l2.822,2.812l-4.712,4.688l9.415,0l-4.703,-4.688l2.828,-2.812l69.917,0l4.016,-4.017l7.912,-7.89l5.276,5.259l26.736,-0.117l4.286,0l10.831,10.797l28.777,0l6.193,-6.174l63.542,0.033l4.937,4.918l7.401,-7.38l2.473,2.462l141.319,-0.033l10.919,-10.871l20.578,20.513l0.007,-0.009l0.009,0.009l7.746,-7.721l3.287,0l1.797,1.791l-2.855,2.835l5.696,0l-2.841,-2.835l1.764,-1.755l50.127,-0.031l0,-0.005l237.768,0l6.548,-6.544l11.056,0l13.662,14.265l0.02,-0.019l0.016,0.019l7.847,-7.5l124.583,0l2.822,2.812l-4.712,4.688l9.415,0l-4.703,-4.688l2.828,-2.812l69.917,0l4.016,-4.017l7.912,-7.89l5.276,5.259l26.736,-0.117l4.286,0l10.831,10.797l28.777,0l6.193,-6.174l63.542,0.033l4.937,4.918l7.401,-7.38l2.473,2.462l141.319,-0.033l10.919,-10.871l20.578,20.513l0.007,-0.009l0.009,0.009l7.746,-7.721l3.287,0l1.797,1.791l-2.855,2.835l5.696,0l-2.841,-2.835l1.764,-1.755l53.127,-0.033l0,-0.003l237.768,0l6.548,-6.544l11.056,0l13.662,14.265l0.02,-0.019l0.016,0.019l7.847,-7.5l109.082,0.002zm-1865.559,3.067l-1.484,0l0,4.431l1.484,0l0,-4.431zm2.245,0l-1.48,0l0,4.431l1.48,0l0,-4.431zm10.373,0l-1.481,0l0,4.431l1.481,0l0,-4.431zm17.795,0l-4.445,0l0,4.431l4.445,0l0,-4.431zm177.552,-5.571l-1.484,0l0,1.477l1.484,0l0,-1.477zm5.682,0l-1.484,0l0,4.432l1.484,0l0,-4.432zm11.495,0l-1.484,0l0,1.477l1.484,0l0,-1.477zm0,2.956l-1.484,0l0,1.476l1.484,0l0,-1.476zm661.858,2.615l-1.484,0l0,4.431l1.484,0l0,-4.431zm2.245,0l-1.48,0l0,4.431l1.48,0l0,-4.431zm10.373,0l-1.481,0l0,4.431l1.481,0l0,-4.431zm17.795,0l-4.445,0l0,4.431l4.445,0l0,-4.431zm177.552,-5.571l-1.484,0l0,1.477l1.484,0l0,-1.477zm5.682,0l-1.484,0l0,4.432l1.484,0l0,-4.432zm11.495,0l-1.484,0l0,1.477l1.484,0l0,-1.477zm0,2.956l-1.484,0l0,1.476l1.484,0l0,-1.476zm664.858,2.615l-1.484,0l0,4.431l1.484,0l0,-4.431zm2.245,0l-1.48,0l0,4.431l1.48,0l0,-4.431zm10.373,0l-1.481,0l0,4.431l1.481,0l0,-4.431zm17.795,0l-4.445,0l0,4.431l4.445,0l0,-4.431zm-1703.375,-3.092l5.695,0l-0.023,0.023l-5.65,0l-0.022,-0.023zm248.998,-8.039l-3.502,3.491l-3.512,-3.491l7.014,0z" fill="#ffef00" fill-rule="evenodd"/>
 </g>
</svg>